ground reactions
version=1
nRows=49
nColumns=19
inDegrees=no
endheader
time	ground_force_l_vx	ground_force_l_vy	ground_force_l_vz	ground_force_l_px	ground_force_l_py	ground_force_l_pz	ground_torque_l_x	ground_torque_l_y	ground_torque_l_z	ground_force_r_vx	ground_force_r_vy	ground_force_r_vz	ground_force_r_px	ground_force_r_py	ground_force_r_pz	ground_torque_r_x	ground_torque_r_y	ground_torque_r_z
1.567000	0.000000	-0.000000	-0.000000	-0.000000	-0.000000	0.000000	0.000000	0.000000	0.000000	-15.335148	574.578200	-33.007327	0.879024	0.000000	-0.413854	0.000000	2.712930	0.000000
1.568000	0.000000	-0.000000	-0.000000	0.000000	0.000000	-0.000000	0.000000	0.000000	0.000000	-15.173454	576.238442	-33.125961	0.878029	0.000000	-0.413826	0.000000	2.735980	0.000000
1.569000	0.000000	-0.000000	-0.000000	0.000000	0.000000	-0.000000	0.000000	0.000000	0.000000	-15.005674	577.907682	-33.233345	0.877016	0.000000	-0.413804	0.000000	2.759892	0.000000
1.570000	0.000000	-0.000000	-0.000000	0.000000	0.000000	-0.000000	0.000000	0.000000	0.000000	-14.831325	579.585134	-33.329696	0.875985	0.000000	-0.413786	0.000000	2.784698	0.000000
1.571000	0.000000	-0.000000	-0.000000	0.000000	0.000000	-0.000000	0.000000	0.000000	0.000000	-14.649946	581.270005	-33.415285	0.874936	0.000000	-0.413772	0.000000	2.810425	0.000000
1.572000	0.000000	-0.000000	-0.000000	0.000000	0.000000	-0.000000	0.000000	0.000000	0.000000	-14.461108	582.961502	-33.490434	0.873870	0.000000	-0.413762	0.000000	2.837098	0.000000
1.573000	0.000000	-0.000000	-0.000000	0.000000	0.000000	-0.000000	0.000000	0.000000	0.000000	-14.264412	584.658828	-33.555511	0.872787	0.000000	-0.413756	0.000000	2.864740	0.000000
1.574000	0.000000	-0.000000	-0.000000	0.000000	0.000000	-0.000000	0.000000	0.000000	0.000000	-14.059492	586.361188	-33.610928	0.871689	0.000000	-0.413753	0.000000	2.893369	0.000000
1.575000	0.000000	-0.000000	-0.000000	0.000000	0.000000	-0.000000	0.000000	0.000000	0.000000	-13.846018	588.067789	-33.657135	0.870576	0.000000	-0.413752	0.000000	2.923001	0.000000
1.576000	0.000000	-0.000000	-0.000000	0.000000	0.000000	-0.000000	0.000000	0.000000	0.000000	-13.623695	589.777842	-33.694614	0.869448	0.000000	-0.413755	0.000000	2.953648	0.000000
1.577000	0.000000	-0.000000	-0.000000	0.000000	0.000000	-0.000000	0.000000	0.000000	0.000000	-13.392266	591.490564	-33.723878	0.868308	0.000000	-0.413759	0.000000	2.985322	0.000000
1.578000	0.000000	-0.000000	-0.000000	0.000000	0.000000	-0.000000	0.000000	0.000000	0.000000	-13.151510	593.205176	-33.745464	0.867155	0.000000	-0.413766	0.000000	3.018027	0.000000
1.579000	0.000000	-0.000000	-0.000000	-0.000000	-0.000000	0.000000	0.000000	0.000000	0.000000	-12.901243	594.920907	-33.759927	0.865992	0.000000	-0.413774	0.000000	3.051770	0.000000
1.580000	0.000000	-0.000000	-0.000000	-0.000000	-0.000000	0.000000	0.000000	0.000000	0.000000	-12.641315	596.636994	-33.767837	0.864819	0.000000	-0.413784	0.000000	3.086552	0.000000
1.581000	0.000000	-0.000000	-0.000000	-0.000000	-0.000000	0.000000	0.000000	0.000000	0.000000	-12.371611	598.352681	-33.769776	0.863639	0.000000	-0.413796	0.000000	3.122372	0.000000
1.582000	0.000000	-0.000000	-0.000000	-0.000000	-0.000000	0.000000	0.000000	0.000000	0.000000	-12.092045	600.067220	-33.766330	0.862451	0.000000	-0.413808	0.000000	3.159229	0.000000
1.583000	0.000000	-0.000000	-0.000000	-0.000000	-0.000000	0.000000	0.000000	0.000000	0.000000	-11.802563	601.779870	-33.758086	0.861258	0.000000	-0.413822	0.000000	3.197116	0.000000
1.584000	0.000000	-0.000000	-0.000000	-0.000000	-0.000000	0.000000	0.000000	0.000000	0.000000	-11.503135	603.489899	-33.745631	0.860062	0.000000	-0.413837	0.000000	3.236029	0.000000
1.585000	0.000000	-0.000000	-0.000000	-0.000000	-0.000000	0.000000	0.000000	0.000000	0.000000	-11.193755	605.196584	-33.729545	0.858862	0.000000	-0.413852	0.000000	3.275958	0.000000
1.586000	0.000000	-0.000000	-0.000000	-0.000000	-0.000000	0.000000	0.000000	0.000000	0.000000	-10.874435	606.899207	-33.710399	0.857662	0.000000	-0.413868	0.000000	3.316895	0.000000
1.587000	0.000000	-0.000000	-0.000000	-0.000000	-0.000000	0.000000	0.000000	0.000000	0.000000	-10.545204	608.597062	-33.688755	0.856462	0.000000	-0.413885	0.000000	3.358827	0.000000
1.588000	0.000000	-0.000000	-0.000000	-0.000000	-0.000000	0.000000	0.000000	0.000000	0.000000	-10.206103	610.289449	-33.665159	0.855264	0.000000	-0.413903	0.000000	3.401743	0.000000
1.589000	0.000000	-0.000000	-0.000000	0.000000	0.000000	-0.000000	0.000000	0.000000	0.000000	-9.857181	611.975675	-33.640142	0.854068	0.000000	-0.413921	0.000000	3.445628	0.000000
1.590000	0.000000	-0.000000	-0.000000	0.000000	0.000000	-0.000000	0.000000	0.000000	0.000000	-9.498492	613.655059	-33.614219	0.852876	0.000000	-0.413940	0.000000	3.490467	0.000000
1.591000	0.000000	-0.000000	-0.000000	0.000000	0.000000	-0.000000	0.000000	0.000000	0.000000	-9.130093	615.326928	-33.587884	0.851689	0.000000	-0.413960	0.000000	3.536243	0.000000
1.592000	0.000000	-0.000000	-0.000000	0.000000	0.000000	-0.000000	0.000000	0.000000	0.000000	-8.752038	616.990617	-33.561614	0.850508	0.000000	-0.413980	0.000000	3.582938	0.000000
1.593000	0.000000	-0.000000	-0.000000	0.000000	0.000000	-0.000000	0.000000	0.000000	0.000000	-8.364376	618.645474	-33.535864	0.849333	0.000000	-0.414002	0.000000	3.630531	0.000000
1.594000	0.000000	-0.000000	-0.000000	0.000000	0.000000	-0.000000	0.000000	0.000000	0.000000	-7.967150	620.290858	-33.511070	0.848166	0.000000	-0.414024	0.000000	3.679003	0.000000
1.595000	0.000000	-0.000000	-0.000000	0.000000	0.000000	-0.000000	0.000000	0.000000	0.000000	-7.560396	621.926140	-33.487644	0.847006	0.000000	-0.414047	0.000000	3.728328	0.000000
1.596000	0.000000	-0.000000	-0.000000	0.000000	0.000000	-0.000000	0.000000	0.000000	0.000000	-7.144136	623.550707	-33.465980	0.845854	0.000000	-0.414071	0.000000	3.778483	0.000000
1.597000	0.000000	-0.000000	-0.000000	0.000000	0.000000	-0.000000	0.000000	0.000000	0.000000	-6.718383	625.163958	-33.446448	0.844711	0.000000	-0.414097	0.000000	3.829438	0.000000
1.598000	0.000000	-0.000000	-0.000000	0.000000	0.000000	-0.000000	0.000000	0.000000	0.000000	-6.283137	626.765310	-33.429399	0.843576	0.000000	-0.414123	0.000000	3.881165	0.000000
1.599000	0.000000	-0.000000	-0.000000	0.000000	0.000000	-0.000000	0.000000	0.000000	0.000000	-5.838385	628.354198	-33.415162	0.842450	0.000000	-0.414150	0.000000	3.933631	0.000000
1.600000	0.000000	-0.000000	-0.000000	-0.000000	-0.000000	0.000000	0.000000	0.000000	0.000000	-5.384102	629.930077	-33.404043	0.841332	0.000000	-0.414178	0.000000	3.986800	0.000000
1.601000	0.000000	-0.000000	-0.000000	-0.000000	-0.000000	0.000000	0.000000	0.000000	0.000000	-4.920255	631.492422	-33.396331	0.840222	0.000000	-0.414207	0.000000	4.040634	0.000000
1.602000	0.000000	-0.000000	-0.000000	-0.000000	-0.000000	0.000000	0.000000	0.000000	0.000000	-4.446797	633.040730	-33.392292	0.839119	0.000000	-0.414237	0.000000	4.095091	0.000000
1.603000	0.000000	-0.000000	-0.000000	-0.000000	-0.000000	0.000000	0.000000	0.000000	0.000000	-3.963676	634.574523	-33.392173	0.838023	0.000000	-0.414267	0.000000	4.150125	0.000000
1.604000	0.000000	-0.000000	-0.000000	-0.000000	-0.000000	0.000000	0.000000	0.000000	0.000000	-3.470832	636.093348	-33.396200	0.836934	0.000000	-0.414298	0.000000	4.205687	0.000000
1.605000	0.000000	-0.000000	-0.000000	-0.000000	-0.000000	0.000000	0.000000	0.000000	0.000000	-2.968202	637.596779	-33.404580	0.835851	0.000000	-0.414329	0.000000	4.261724	0.000000
1.606000	0.000000	-0.000000	-0.000000	-0.000000	-0.000000	0.000000	0.000000	0.000000	0.000000	-2.455721	639.084421	-33.417500	0.834772	0.000000	-0.414360	0.000000	4.318179	0.000000
1.607000	0.000000	-0.000000	-0.000000	-0.000000	-0.000000	0.000000	0.000000	0.000000	0.000000	-1.933327	640.555906	-33.435131	0.833698	0.000000	-0.414392	0.000000	4.374990	0.000000
1.608000	0.000000	-0.000000	-0.000000	-0.000000	-0.000000	0.000000	0.000000	0.000000	0.000000	-1.400960	642.010901	-33.457621	0.832628	0.000000	-0.414422	0.000000	4.432093	0.000000
1.609000	0.000000	-0.000000	-0.000000	-0.000000	-0.000000	0.000000	0.000000	0.000000	0.000000	-0.858568	643.449104	-33.485103	0.831560	0.000000	-0.414453	0.000000	4.489416	0.000000
1.610000	0.000000	-0.000000	-0.000000	-0.000000	-0.000000	0.000000	0.000000	0.000000	0.000000	-0.306109	644.870250	-33.517692	0.830494	0.000000	-0.414482	0.000000	4.546887	0.000000
1.611000	0.000000	0.000000	-0.000000	0.000000	0.000000	-0.000000	0.000000	0.000000	0.000000	0.256448	646.274112	-33.555484	0.829430	0.000000	-0.414511	0.000000	4.604427	0.000000
1.612000	0.000000	0.000000	-0.000000	0.000000	0.000000	-0.000000	0.000000	0.000000	0.000000	0.829117	647.660500	-33.598560	0.828366	0.000000	-0.414539	0.000000	4.661955	0.000000
1.613000	0.000000	0.000000	-0.000000	0.000000	0.000000	-0.000000	0.000000	0.000000	0.000000	1.411897	649.029267	-33.646983	0.827302	0.000000	-0.414565	0.000000	4.719384	0.000000
1.614000	0.000000	0.000000	-0.000000	0.000000	0.000000	-0.000000	0.000000	0.000000	0.000000	2.004766	650.380306	-33.700801	0.826237	0.000000	-0.414590	0.000000	4.776626	0.000000
1.615000	0.000000	0.000000	-0.000000	0.000000	0.000000	-0.000000	0.000000	0.000000	0.000000	2.607681	651.713557	-33.760047	0.825171	0.000000	-0.414613	0.000000	4.833589	0.000000
